<svg viewBox="0 0 93 88.629" xmlns="http://www.w3.org/2000/svg">
    <path style="fill:lightGray;fill-opacity:1" d="M339.357 796.619c-6.114 3.24-10.478 10.835-11.397 19.834l16.264 22.387v-6.278a2.998 2.998 0 1 1 2.998 0v6.282l16.275-22.403c-.93-8.996-5.303-16.582-11.421-19.806 0 0-3.355 6.35-6.352 6.35-2.997 0-6.367-6.366-6.367-6.366zm-21.111 20.85c-6.162.09-11.569 2.054-15.088 5.478 0 0 5.003 5.15 4.078 8-.926 2.85-8.022 4.09-8.022 4.09 1.19 6.816 7.065 13.316 15.34 16.97l26.317-8.552-5.971-1.942a2.998 2.998 0 1 1 .926-2.85l5.974 1.942-16.275-22.404a32.542 32.542 0 0 0-7.28-.732zm54.123.004c-2.13.029-4.302.279-6.457.744l-16.264 22.388 5.973-1.941a2.998 2.998 0 1 1 .927 2.85l-5.972 1.94 26.332 8.558a32.514 32.514 0 0 0 6.449-3.774c4.862-3.684 8.032-8.412 8.857-13.209 0 0-7.077-1.227-8.004-4.078-.926-2.851 4.09-8.023 4.09-8.023-3.692-3.577-9.439-5.545-15.931-5.455zM349.644 846.3l3.695 5.086a2.998 2.998 0 1 1-2.426 1.762l-3.69-5.08v27.689c6.04 6.731 14.037 10.296 20.882 9.308 0 0-1.02-7.109 1.404-8.87 2.425-1.763 8.893 1.407 8.893 1.407 3.042-6.214 2.109-14.925-2.438-22.746zm-7.846.006-26.336 8.558c-4.533 7.824-5.452 16.53-2.398 22.733 0 0 6.446-3.167 8.871-1.405 2.425 1.762 1.41 8.895 1.41 8.895 5.086.731 10.891-1.047 16.094-4.928a32.86 32.86 0 0 0 4.785-4.42l.002-27.674-3.691 5.082a2.998 2.998 0 0 1-.979 3.645 2.998 2.998 0 1 1-1.45-5.406z" transform="translate(-299.214 -796.619)"/>
</svg>
